<?xml version="1.0" encoding="UTF-8" standalone="no"?>
<!DOCTYPE svg PUBLIC "-//W3C//DTD SVG 1.1//EN"
 "http://www.w3.org/Graphics/SVG/1.1/DTD/svg11.dtd">
<!-- Generated by graphviz version 2.43.0 (0)
 -->
<!-- Title: %3 Pages: 1 -->
<svg width="2272pt" height="548pt"
 viewBox="0.00 0.00 2272.00 548.00" xmlns="http://www.w3.org/2000/svg" xmlns:xlink="http://www.w3.org/1999/xlink">
<g id="graph0" class="graph" transform="scale(1 1) rotate(0) translate(4 544)">
<title>%3</title>
<polygon fill="white" stroke="transparent" points="-4,4 -4,-544 2268,-544 2268,4 -4,4"/>
<!-- [root] aws_db_instance.production (expand) -->
<g id="node1" class="node">
<title>[root] aws_db_instance.production (expand)</title>
<polygon fill="none" stroke="black" points="2001.5,-396 1783.5,-396 1783.5,-360 2001.5,-360 2001.5,-396"/>
<text text-anchor="middle" x="1892.5" y="-374.3" font-family="Times,serif" font-size="14.00">aws_db_instance.production</text>
</g>
<!-- [root] aws_security_group.private&#45;sg (expand) -->
<g id="node15" class="node">
<title>[root] aws_security_group.private&#45;sg (expand)</title>
<polygon fill="none" stroke="black" points="1783.5,-324 1549.5,-324 1549.5,-288 1783.5,-288 1783.5,-324"/>
<text text-anchor="middle" x="1666.5" y="-302.3" font-family="Times,serif" font-size="14.00">aws_security_group.private&#45;sg</text>
</g>
<!-- [root] aws_db_instance.production (expand)&#45;&gt;[root] aws_security_group.private&#45;sg (expand) -->
<g id="edge1" class="edge">
<title>[root] aws_db_instance.production (expand)&#45;&gt;[root] aws_security_group.private&#45;sg (expand)</title>
<path fill="none" stroke="black" d="M1837.5,-359.97C1805.51,-350.06 1765.02,-337.51 1731.46,-327.12"/>
<polygon fill="black" stroke="black" points="1732.33,-323.73 1721.74,-324.11 1730.26,-330.41 1732.33,-323.73"/>
</g>
<!-- [root] var.password -->
<g id="node25" class="node">
<title>[root] var.password</title>
<polygon fill="none" stroke="black" points="2033,-324 1928,-324 1928,-288 2039,-288 2039,-318 2033,-324"/>
<polyline fill="none" stroke="black" points="2033,-324 2033,-318 "/>
<polyline fill="none" stroke="black" points="2039,-318 2033,-318 "/>
<text text-anchor="middle" x="1983.5" y="-302.3" font-family="Times,serif" font-size="14.00">var.password</text>
</g>
<!-- [root] aws_db_instance.production (expand)&#45;&gt;[root] var.password -->
<g id="edge2" class="edge">
<title>[root] aws_db_instance.production (expand)&#45;&gt;[root] var.password</title>
<path fill="none" stroke="black" d="M1914.99,-359.7C1926.46,-350.88 1940.56,-340.03 1952.98,-330.47"/>
<polygon fill="black" stroke="black" points="1955.47,-332.98 1961.26,-324.1 1951.2,-327.43 1955.47,-332.98"/>
</g>
<!-- [root] var.user -->
<g id="node29" class="node">
<title>[root] var.user</title>
<polygon fill="none" stroke="black" points="1903.5,-324 1835.5,-324 1835.5,-288 1909.5,-288 1909.5,-318 1903.5,-324"/>
<polyline fill="none" stroke="black" points="1903.5,-324 1903.5,-318 "/>
<polyline fill="none" stroke="black" points="1909.5,-318 1903.5,-318 "/>
<text text-anchor="middle" x="1872.5" y="-302.3" font-family="Times,serif" font-size="14.00">var.user</text>
</g>
<!-- [root] aws_db_instance.production (expand)&#45;&gt;[root] var.user -->
<g id="edge3" class="edge">
<title>[root] aws_db_instance.production (expand)&#45;&gt;[root] var.user</title>
<path fill="none" stroke="black" d="M1887.56,-359.7C1885.33,-351.9 1882.65,-342.51 1880.17,-333.83"/>
<polygon fill="black" stroke="black" points="1883.5,-332.76 1877.39,-324.1 1876.77,-334.68 1883.5,-332.76"/>
</g>
<!-- [root] aws_eip.nat (expand) -->
<g id="node2" class="node">
<title>[root] aws_eip.nat (expand)</title>
<polygon fill="none" stroke="black" points="711,-180 610,-180 610,-144 711,-144 711,-180"/>
<text text-anchor="middle" x="660.5" y="-158.3" font-family="Times,serif" font-size="14.00">aws_eip.nat</text>
</g>
<!-- [root] provider[&quot;registry.terraform.io/hashicorp/aws&quot;] -->
<g id="node20" class="node">
<title>[root] provider[&quot;registry.terraform.io/hashicorp/aws&quot;]</title>
<polygon fill="none" stroke="black" points="660.5,-36 335.24,-18 660.5,0 985.76,-18 660.5,-36"/>
<text text-anchor="middle" x="660.5" y="-14.3" font-family="Times,serif" font-size="14.00">provider[&quot;registry.terraform.io/hashicorp/aws&quot;]</text>
</g>
<!-- [root] aws_eip.nat (expand)&#45;&gt;[root] provider[&quot;registry.terraform.io/hashicorp/aws&quot;] -->
<g id="edge4" class="edge">
<title>[root] aws_eip.nat (expand)&#45;&gt;[root] provider[&quot;registry.terraform.io/hashicorp/aws&quot;]</title>
<path fill="none" stroke="black" d="M660.5,-143.87C660.5,-119.67 660.5,-75.21 660.5,-46.39"/>
<polygon fill="black" stroke="black" points="664,-46.19 660.5,-36.19 657,-46.19 664,-46.19"/>
</g>
<!-- [root] aws_instance.artifact&#45;repo (expand) -->
<g id="node3" class="node">
<title>[root] aws_instance.artifact&#45;repo (expand)</title>
<polygon fill="none" stroke="black" points="1580,-396 1375,-396 1375,-360 1580,-360 1580,-396"/>
<text text-anchor="middle" x="1477.5" y="-374.3" font-family="Times,serif" font-size="14.00">aws_instance.artifact&#45;repo</text>
</g>
<!-- [root] aws_instance.artifact&#45;repo (expand)&#45;&gt;[root] aws_security_group.private&#45;sg (expand) -->
<g id="edge5" class="edge">
<title>[root] aws_instance.artifact&#45;repo (expand)&#45;&gt;[root] aws_security_group.private&#45;sg (expand)</title>
<path fill="none" stroke="black" d="M1523.73,-359.88C1550.03,-350.14 1583.14,-337.87 1610.86,-327.61"/>
<polygon fill="black" stroke="black" points="1612.25,-330.82 1620.42,-324.07 1609.82,-324.26 1612.25,-330.82"/>
</g>
<!-- [root] aws_subnet.private (expand) -->
<g id="node17" class="node">
<title>[root] aws_subnet.private (expand)</title>
<polygon fill="none" stroke="black" points="1531,-324 1376,-324 1376,-288 1531,-288 1531,-324"/>
<text text-anchor="middle" x="1453.5" y="-302.3" font-family="Times,serif" font-size="14.00">aws_subnet.private</text>
</g>
<!-- [root] aws_instance.artifact&#45;repo (expand)&#45;&gt;[root] aws_subnet.private (expand) -->
<g id="edge6" class="edge">
<title>[root] aws_instance.artifact&#45;repo (expand)&#45;&gt;[root] aws_subnet.private (expand)</title>
<path fill="none" stroke="black" d="M1471.57,-359.7C1468.89,-351.9 1465.67,-342.51 1462.7,-333.83"/>
<polygon fill="black" stroke="black" points="1465.92,-332.43 1459.36,-324.1 1459.3,-334.7 1465.92,-332.43"/>
</g>
<!-- [root] var.ami&#45;id -->
<g id="node21" class="node">
<title>[root] var.ami&#45;id</title>
<polygon fill="none" stroke="black" points="1352,-324 1271,-324 1271,-288 1358,-288 1358,-318 1352,-324"/>
<polyline fill="none" stroke="black" points="1352,-324 1352,-318 "/>
<polyline fill="none" stroke="black" points="1358,-318 1352,-318 "/>
<text text-anchor="middle" x="1314.5" y="-302.3" font-family="Times,serif" font-size="14.00">var.ami&#45;id</text>
</g>
<!-- [root] aws_instance.artifact&#45;repo (expand)&#45;&gt;[root] var.ami&#45;id -->
<g id="edge7" class="edge">
<title>[root] aws_instance.artifact&#45;repo (expand)&#45;&gt;[root] var.ami&#45;id</title>
<path fill="none" stroke="black" d="M1437.63,-359.88C1415.34,-350.31 1387.38,-338.3 1363.74,-328.15"/>
<polygon fill="black" stroke="black" points="1364.81,-324.8 1354.24,-324.07 1362.05,-331.23 1364.81,-324.8"/>
</g>
<!-- [root] var.instance&#45;type -->
<g id="node24" class="node">
<title>[root] var.instance&#45;type</title>
<polygon fill="none" stroke="black" points="1247,-324 1114,-324 1114,-288 1253,-288 1253,-318 1247,-324"/>
<polyline fill="none" stroke="black" points="1247,-324 1247,-318 "/>
<polyline fill="none" stroke="black" points="1253,-318 1247,-318 "/>
<text text-anchor="middle" x="1183.5" y="-302.3" font-family="Times,serif" font-size="14.00">var.instance&#45;type</text>
</g>
<!-- [root] aws_instance.artifact&#45;repo (expand)&#45;&gt;[root] var.instance&#45;type -->
<g id="edge8" class="edge">
<title>[root] aws_instance.artifact&#45;repo (expand)&#45;&gt;[root] var.instance&#45;type</title>
<path fill="none" stroke="black" d="M1405.96,-359.97C1362.74,-349.68 1307.58,-336.54 1263,-325.93"/>
<polygon fill="black" stroke="black" points="1263.62,-322.48 1253.08,-323.57 1262,-329.29 1263.62,-322.48"/>
</g>
<!-- [root] aws_instance.bastion&#45;host (expand) -->
<g id="node4" class="node">
<title>[root] aws_instance.bastion&#45;host (expand)</title>
<polygon fill="none" stroke="black" points="948,-396 745,-396 745,-360 948,-360 948,-396"/>
<text text-anchor="middle" x="846.5" y="-374.3" font-family="Times,serif" font-size="14.00">aws_instance.bastion&#45;host</text>
</g>
<!-- [root] aws_security_group.bastion&#45;host&#45;sg (expand) -->
<g id="node14" class="node">
<title>[root] aws_security_group.bastion&#45;host&#45;sg (expand)</title>
<polygon fill="none" stroke="black" points="1122,-252 851,-252 851,-216 1122,-216 1122,-252"/>
<text text-anchor="middle" x="986.5" y="-230.3" font-family="Times,serif" font-size="14.00">aws_security_group.bastion&#45;host&#45;sg</text>
</g>
<!-- [root] aws_instance.bastion&#45;host (expand)&#45;&gt;[root] aws_security_group.bastion&#45;host&#45;sg (expand) -->
<g id="edge9" class="edge">
<title>[root] aws_instance.bastion&#45;host (expand)&#45;&gt;[root] aws_security_group.bastion&#45;host&#45;sg (expand)</title>
<path fill="none" stroke="black" d="M848.95,-359.97C852.55,-340.47 860.98,-308.58 879.5,-288 891.5,-274.67 907.61,-264.3 923.68,-256.4"/>
<polygon fill="black" stroke="black" points="925.51,-259.42 933.11,-252.04 922.57,-253.06 925.51,-259.42"/>
</g>
<!-- [root] aws_subnet.public (expand) -->
<g id="node18" class="node">
<title>[root] aws_subnet.public (expand)</title>
<polygon fill="none" stroke="black" points="877.5,-180 729.5,-180 729.5,-144 877.5,-144 877.5,-180"/>
<text text-anchor="middle" x="803.5" y="-158.3" font-family="Times,serif" font-size="14.00">aws_subnet.public</text>
</g>
<!-- [root] aws_instance.bastion&#45;host (expand)&#45;&gt;[root] aws_subnet.public (expand) -->
<g id="edge10" class="edge">
<title>[root] aws_instance.bastion&#45;host (expand)&#45;&gt;[root] aws_subnet.public (expand)</title>
<path fill="none" stroke="black" d="M843.05,-359.85C835.6,-322.75 817.93,-234.81 808.95,-190.1"/>
<polygon fill="black" stroke="black" points="812.36,-189.35 806.96,-180.23 805.5,-190.73 812.36,-189.35"/>
</g>
<!-- [root] aws_instance.bastion&#45;host (expand)&#45;&gt;[root] var.ami&#45;id -->
<g id="edge11" class="edge">
<title>[root] aws_instance.bastion&#45;host (expand)&#45;&gt;[root] var.ami&#45;id</title>
<path fill="none" stroke="black" d="M948.07,-361.17C950.91,-360.77 953.72,-360.38 956.5,-360 1089.01,-341.97 1126.99,-352.88 1261.15,-324.07"/>
<polygon fill="black" stroke="black" points="1261.96,-327.47 1270.98,-321.92 1260.47,-320.63 1261.96,-327.47"/>
</g>
<!-- [root] aws_instance.bastion&#45;host (expand)&#45;&gt;[root] var.instance&#45;type -->
<g id="edge12" class="edge">
<title>[root] aws_instance.bastion&#45;host (expand)&#45;&gt;[root] var.instance&#45;type</title>
<path fill="none" stroke="black" d="M931.13,-359.97C979.18,-350.23 1040.72,-337.64 1103.66,-324.38"/>
<polygon fill="black" stroke="black" points="1104.71,-327.73 1113.77,-322.24 1103.26,-320.88 1104.71,-327.73"/>
</g>
<!-- [root] aws_instance.jenkins (expand) -->
<g id="node5" class="node">
<title>[root] aws_instance.jenkins (expand)</title>
<polygon fill="none" stroke="black" points="1765,-396 1598,-396 1598,-360 1765,-360 1765,-396"/>
<text text-anchor="middle" x="1681.5" y="-374.3" font-family="Times,serif" font-size="14.00">aws_instance.jenkins</text>
</g>
<!-- [root] aws_instance.jenkins (expand)&#45;&gt;[root] aws_security_group.private&#45;sg (expand) -->
<g id="edge13" class="edge">
<title>[root] aws_instance.jenkins (expand)&#45;&gt;[root] aws_security_group.private&#45;sg (expand)</title>
<path fill="none" stroke="black" d="M1677.79,-359.7C1676.14,-351.98 1674.15,-342.71 1672.31,-334.11"/>
<polygon fill="black" stroke="black" points="1675.68,-333.15 1670.17,-324.1 1668.84,-334.62 1675.68,-333.15"/>
</g>
<!-- [root] aws_instance.jenkins (expand)&#45;&gt;[root] aws_subnet.private (expand) -->
<g id="edge14" class="edge">
<title>[root] aws_instance.jenkins (expand)&#45;&gt;[root] aws_subnet.private (expand)</title>
<path fill="none" stroke="black" d="M1626.02,-359.97C1593.74,-350.06 1552.89,-337.51 1519.04,-327.12"/>
<polygon fill="black" stroke="black" points="1519.82,-323.7 1509.23,-324.11 1517.76,-330.39 1519.82,-323.7"/>
</g>
<!-- [root] aws_instance.jenkins (expand)&#45;&gt;[root] var.ami&#45;id -->
<g id="edge15" class="edge">
<title>[root] aws_instance.jenkins (expand)&#45;&gt;[root] var.ami&#45;id</title>
<path fill="none" stroke="black" d="M1597.78,-361.45C1594.99,-360.96 1592.22,-360.47 1589.5,-360 1494.09,-343.45 1466.41,-347.08 1367.8,-323.86"/>
<polygon fill="black" stroke="black" points="1368.57,-320.45 1358.03,-321.53 1366.94,-327.26 1368.57,-320.45"/>
</g>
<!-- [root] aws_instance.jenkins (expand)&#45;&gt;[root] var.instance&#45;type -->
<g id="edge16" class="edge">
<title>[root] aws_instance.jenkins (expand)&#45;&gt;[root] var.instance&#45;type</title>
<path fill="none" stroke="black" d="M1597.81,-361.27C1595.01,-360.83 1592.23,-360.4 1589.5,-360 1448.1,-339.18 1408.59,-347.03 1263.39,-324.04"/>
<polygon fill="black" stroke="black" points="1263.64,-320.54 1253.21,-322.41 1262.53,-327.45 1263.64,-320.54"/>
</g>
<!-- [root] aws_instance.test (expand) -->
<g id="node6" class="node">
<title>[root] aws_instance.test (expand)</title>
<polygon fill="none" stroke="black" points="1357,-396 1214,-396 1214,-360 1357,-360 1357,-396"/>
<text text-anchor="middle" x="1285.5" y="-374.3" font-family="Times,serif" font-size="14.00">aws_instance.test</text>
</g>
<!-- [root] aws_instance.test (expand)&#45;&gt;[root] aws_security_group.private&#45;sg (expand) -->
<g id="edge17" class="edge">
<title>[root] aws_instance.test (expand)&#45;&gt;[root] aws_security_group.private&#45;sg (expand)</title>
<path fill="none" stroke="black" d="M1357.03,-361.86C1360.23,-361.22 1363.4,-360.6 1366.5,-360 1428.84,-347.96 1498.68,-335.55 1555.28,-325.78"/>
<polygon fill="black" stroke="black" points="1556.06,-329.19 1565.32,-324.04 1554.88,-322.29 1556.06,-329.19"/>
</g>
<!-- [root] aws_instance.test (expand)&#45;&gt;[root] aws_subnet.private (expand) -->
<g id="edge18" class="edge">
<title>[root] aws_instance.test (expand)&#45;&gt;[root] aws_subnet.private (expand)</title>
<path fill="none" stroke="black" d="M1326.6,-359.88C1349.67,-350.26 1378.64,-338.19 1403.07,-328.01"/>
<polygon fill="black" stroke="black" points="1404.65,-331.15 1412.54,-324.07 1401.96,-324.68 1404.65,-331.15"/>
</g>
<!-- [root] aws_instance.test (expand)&#45;&gt;[root] var.ami&#45;id -->
<g id="edge19" class="edge">
<title>[root] aws_instance.test (expand)&#45;&gt;[root] var.ami&#45;id</title>
<path fill="none" stroke="black" d="M1292.67,-359.7C1295.93,-351.81 1299.87,-342.3 1303.5,-333.55"/>
<polygon fill="black" stroke="black" points="1306.82,-334.68 1307.41,-324.1 1300.35,-332 1306.82,-334.68"/>
</g>
<!-- [root] aws_instance.test (expand)&#45;&gt;[root] var.instance&#45;type -->
<g id="edge20" class="edge">
<title>[root] aws_instance.test (expand)&#45;&gt;[root] var.instance&#45;type</title>
<path fill="none" stroke="black" d="M1260.55,-359.88C1247.46,-350.89 1231.24,-339.76 1217.06,-330.03"/>
<polygon fill="black" stroke="black" points="1218.77,-326.96 1208.55,-324.19 1214.81,-332.73 1218.77,-326.96"/>
</g>
<!-- [root] aws_internet_gateway.terra_igw (expand) -->
<g id="node7" class="node">
<title>[root] aws_internet_gateway.terra_igw (expand)</title>
<polygon fill="none" stroke="black" points="591.5,-180 345.5,-180 345.5,-144 591.5,-144 591.5,-180"/>
<text text-anchor="middle" x="468.5" y="-158.3" font-family="Times,serif" font-size="14.00">aws_internet_gateway.terra_igw</text>
</g>
<!-- [root] aws_vpc.final_project (expand) -->
<g id="node19" class="node">
<title>[root] aws_vpc.final_project (expand)</title>
<polygon fill="none" stroke="black" points="1071,-108 902,-108 902,-72 1071,-72 1071,-108"/>
<text text-anchor="middle" x="986.5" y="-86.3" font-family="Times,serif" font-size="14.00">aws_vpc.final_project</text>
</g>
<!-- [root] aws_internet_gateway.terra_igw (expand)&#45;&gt;[root] aws_vpc.final_project (expand) -->
<g id="edge21" class="edge">
<title>[root] aws_internet_gateway.terra_igw (expand)&#45;&gt;[root] aws_vpc.final_project (expand)</title>
<path fill="none" stroke="black" d="M591.81,-145.1C594.73,-144.73 597.63,-144.36 600.5,-144 727.07,-128.05 761.55,-127.65 892.01,-108.03"/>
<polygon fill="black" stroke="black" points="892.62,-111.47 901.99,-106.52 891.58,-104.55 892.62,-111.47"/>
</g>
<!-- [root] aws_nat_gateway.gw (expand) -->
<g id="node8" class="node">
<title>[root] aws_nat_gateway.gw (expand)</title>
<polygon fill="none" stroke="black" points="718.5,-252 554.5,-252 554.5,-216 718.5,-216 718.5,-252"/>
<text text-anchor="middle" x="636.5" y="-230.3" font-family="Times,serif" font-size="14.00">aws_nat_gateway.gw</text>
</g>
<!-- [root] aws_nat_gateway.gw (expand)&#45;&gt;[root] aws_eip.nat (expand) -->
<g id="edge22" class="edge">
<title>[root] aws_nat_gateway.gw (expand)&#45;&gt;[root] aws_eip.nat (expand)</title>
<path fill="none" stroke="black" d="M642.43,-215.7C645.11,-207.9 648.33,-198.51 651.3,-189.83"/>
<polygon fill="black" stroke="black" points="654.7,-190.7 654.64,-180.1 648.08,-188.43 654.7,-190.7"/>
</g>
<!-- [root] aws_nat_gateway.gw (expand)&#45;&gt;[root] aws_internet_gateway.terra_igw (expand) -->
<g id="edge23" class="edge">
<title>[root] aws_nat_gateway.gw (expand)&#45;&gt;[root] aws_internet_gateway.terra_igw (expand)</title>
<path fill="none" stroke="black" d="M595.4,-215.88C572.33,-206.26 543.36,-194.19 518.93,-184.01"/>
<polygon fill="black" stroke="black" points="520.04,-180.68 509.46,-180.07 517.35,-187.15 520.04,-180.68"/>
</g>
<!-- [root] aws_nat_gateway.gw (expand)&#45;&gt;[root] aws_subnet.public (expand) -->
<g id="edge24" class="edge">
<title>[root] aws_nat_gateway.gw (expand)&#45;&gt;[root] aws_subnet.public (expand)</title>
<path fill="none" stroke="black" d="M677.35,-215.88C700.28,-206.26 729.08,-194.19 753.37,-184.01"/>
<polygon fill="black" stroke="black" points="754.91,-187.16 762.78,-180.07 752.2,-180.71 754.91,-187.16"/>
</g>
<!-- [root] aws_route_table.private_rt (expand) -->
<g id="node9" class="node">
<title>[root] aws_route_table.private_rt (expand)</title>
<polygon fill="none" stroke="black" points="1096,-324 889,-324 889,-288 1096,-288 1096,-324"/>
<text text-anchor="middle" x="992.5" y="-302.3" font-family="Times,serif" font-size="14.00">aws_route_table.private_rt</text>
</g>
<!-- [root] aws_route_table.private_rt (expand)&#45;&gt;[root] aws_nat_gateway.gw (expand) -->
<g id="edge25" class="edge">
<title>[root] aws_route_table.private_rt (expand)&#45;&gt;[root] aws_nat_gateway.gw (expand)</title>
<path fill="none" stroke="black" d="M905.87,-287.97C852.2,-277.41 783.32,-263.87 728.65,-253.12"/>
<polygon fill="black" stroke="black" points="729.11,-249.64 718.62,-251.15 727.75,-256.51 729.11,-249.64"/>
</g>
<!-- [root] aws_route_table.public_rt (expand) -->
<g id="node10" class="node">
<title>[root] aws_route_table.public_rt (expand)</title>
<polygon fill="none" stroke="black" points="568.5,-324 368.5,-324 368.5,-288 568.5,-288 568.5,-324"/>
<text text-anchor="middle" x="468.5" y="-302.3" font-family="Times,serif" font-size="14.00">aws_route_table.public_rt</text>
</g>
<!-- [root] aws_route_table.public_rt (expand)&#45;&gt;[root] aws_internet_gateway.terra_igw (expand) -->
<g id="edge26" class="edge">
<title>[root] aws_route_table.public_rt (expand)&#45;&gt;[root] aws_internet_gateway.terra_igw (expand)</title>
<path fill="none" stroke="black" d="M468.5,-287.87C468.5,-263.67 468.5,-219.21 468.5,-190.39"/>
<polygon fill="black" stroke="black" points="472,-190.19 468.5,-180.19 465,-190.19 472,-190.19"/>
</g>
<!-- [root] aws_route_table_association.a (expand) -->
<g id="node11" class="node">
<title>[root] aws_route_table_association.a (expand)</title>
<polygon fill="none" stroke="black" points="476,-396 245,-396 245,-360 476,-360 476,-396"/>
<text text-anchor="middle" x="360.5" y="-374.3" font-family="Times,serif" font-size="14.00">aws_route_table_association.a</text>
</g>
<!-- [root] aws_route_table_association.a (expand)&#45;&gt;[root] aws_route_table.public_rt (expand) -->
<g id="edge27" class="edge">
<title>[root] aws_route_table_association.a (expand)&#45;&gt;[root] aws_route_table.public_rt (expand)</title>
<path fill="none" stroke="black" d="M386.92,-359.88C400.91,-350.81 418.28,-339.55 433.39,-329.76"/>
<polygon fill="black" stroke="black" points="435.49,-332.57 441.98,-324.19 431.68,-326.69 435.49,-332.57"/>
</g>
<!-- [root] aws_route_table_association.a (expand)&#45;&gt;[root] aws_subnet.public (expand) -->
<g id="edge28" class="edge">
<title>[root] aws_route_table_association.a (expand)&#45;&gt;[root] aws_subnet.public (expand)</title>
<path fill="none" stroke="black" d="M466.48,-359.92C544.9,-343.04 650.95,-310.9 727.5,-252 750.82,-234.06 772.08,-207.93 786.14,-188.63"/>
<polygon fill="black" stroke="black" points="789.13,-190.46 792.08,-180.29 783.43,-186.4 789.13,-190.46"/>
</g>
<!-- [root] aws_route_table_association.b (expand) -->
<g id="node12" class="node">
<title>[root] aws_route_table_association.b (expand)</title>
<polygon fill="none" stroke="black" points="726.5,-396 494.5,-396 494.5,-360 726.5,-360 726.5,-396"/>
<text text-anchor="middle" x="610.5" y="-374.3" font-family="Times,serif" font-size="14.00">aws_route_table_association.b</text>
</g>
<!-- [root] aws_route_table_association.b (expand)&#45;&gt;[root] aws_route_table.public_rt (expand) -->
<g id="edge29" class="edge">
<title>[root] aws_route_table_association.b (expand)&#45;&gt;[root] aws_route_table.public_rt (expand)</title>
<path fill="none" stroke="black" d="M575.76,-359.88C556.68,-350.47 532.82,-338.71 512.45,-328.67"/>
<polygon fill="black" stroke="black" points="513.89,-325.47 503.37,-324.19 510.79,-331.75 513.89,-325.47"/>
</g>
<!-- [root] aws_route_table_association.b (expand)&#45;&gt;[root] aws_subnet.public (expand) -->
<g id="edge30" class="edge">
<title>[root] aws_route_table_association.b (expand)&#45;&gt;[root] aws_subnet.public (expand)</title>
<path fill="none" stroke="black" d="M702.88,-359.88C724.21,-352.05 745.13,-340.63 760.5,-324 794.85,-286.84 802.33,-225.3 803.63,-190.04"/>
<polygon fill="black" stroke="black" points="807.13,-190.08 803.86,-180 800.13,-189.92 807.13,-190.08"/>
</g>
<!-- [root] aws_route_table_association.c (expand) -->
<g id="node13" class="node">
<title>[root] aws_route_table_association.c (expand)</title>
<polygon fill="none" stroke="black" points="1195.5,-396 965.5,-396 965.5,-360 1195.5,-360 1195.5,-396"/>
<text text-anchor="middle" x="1080.5" y="-374.3" font-family="Times,serif" font-size="14.00">aws_route_table_association.c</text>
</g>
<!-- [root] aws_route_table_association.c (expand)&#45;&gt;[root] aws_route_table.private_rt (expand) -->
<g id="edge31" class="edge">
<title>[root] aws_route_table_association.c (expand)&#45;&gt;[root] aws_route_table.private_rt (expand)</title>
<path fill="none" stroke="black" d="M1058.75,-359.7C1047.66,-350.88 1034.03,-340.03 1022.01,-330.47"/>
<polygon fill="black" stroke="black" points="1024.01,-327.59 1014,-324.1 1019.65,-333.07 1024.01,-327.59"/>
</g>
<!-- [root] aws_route_table_association.c (expand)&#45;&gt;[root] aws_subnet.private (expand) -->
<g id="edge32" class="edge">
<title>[root] aws_route_table_association.c (expand)&#45;&gt;[root] aws_subnet.private (expand)</title>
<path fill="none" stroke="black" d="M1174.27,-359.99C1227.74,-350.22 1296.27,-337.57 1365.48,-324.38"/>
<polygon fill="black" stroke="black" points="1366.53,-327.74 1375.69,-322.43 1365.21,-320.86 1366.53,-327.74"/>
</g>
<!-- [root] aws_security_group.bastion&#45;host&#45;sg (expand)&#45;&gt;[root] aws_vpc.final_project (expand) -->
<g id="edge33" class="edge">
<title>[root] aws_security_group.bastion&#45;host&#45;sg (expand)&#45;&gt;[root] aws_vpc.final_project (expand)</title>
<path fill="none" stroke="black" d="M986.5,-215.87C986.5,-191.67 986.5,-147.21 986.5,-118.39"/>
<polygon fill="black" stroke="black" points="990,-118.19 986.5,-108.19 983,-118.19 990,-118.19"/>
</g>
<!-- [root] aws_security_group.private&#45;sg (expand)&#45;&gt;[root] aws_vpc.final_project (expand) -->
<g id="edge34" class="edge">
<title>[root] aws_security_group.private&#45;sg (expand)&#45;&gt;[root] aws_vpc.final_project (expand)</title>
<path fill="none" stroke="black" d="M1625.43,-287.9C1579.39,-269.04 1502.29,-238.4 1434.5,-216 1306.65,-173.75 1155.28,-133.5 1065.27,-110.58"/>
<polygon fill="black" stroke="black" points="1065.97,-107.14 1055.41,-108.07 1064.24,-113.93 1065.97,-107.14"/>
</g>
<!-- [root] aws_security_group.public&#45;sg (expand) -->
<g id="node16" class="node">
<title>[root] aws_security_group.public&#45;sg (expand)</title>
<polygon fill="none" stroke="black" points="227,-396 0,-396 0,-360 227,-360 227,-396"/>
<text text-anchor="middle" x="113.5" y="-374.3" font-family="Times,serif" font-size="14.00">aws_security_group.public&#45;sg</text>
</g>
<!-- [root] aws_security_group.public&#45;sg (expand)&#45;&gt;[root] aws_vpc.final_project (expand) -->
<g id="edge35" class="edge">
<title>[root] aws_security_group.public&#45;sg (expand)&#45;&gt;[root] aws_vpc.final_project (expand)</title>
<path fill="none" stroke="black" d="M123.53,-359.71C150.87,-314.49 231.69,-192.83 336.5,-144 445.99,-92.99 754.06,-121.56 891.75,-107.89"/>
<polygon fill="black" stroke="black" points="892.21,-111.36 901.77,-106.78 891.44,-104.4 892.21,-111.36"/>
</g>
<!-- [root] aws_subnet.private (expand)&#45;&gt;[root] aws_vpc.final_project (expand) -->
<g id="edge36" class="edge">
<title>[root] aws_subnet.private (expand)&#45;&gt;[root] aws_vpc.final_project (expand)</title>
<path fill="none" stroke="black" d="M1375.79,-288.39C1315.35,-275.23 1239.47,-258.08 1225.5,-252 1142.29,-215.77 1057,-150.04 1014.36,-114.81"/>
<polygon fill="black" stroke="black" points="1016.33,-111.91 1006.41,-108.19 1011.85,-117.28 1016.33,-111.91"/>
</g>
<!-- [root] var.azs -->
<g id="node23" class="node">
<title>[root] var.azs</title>
<polygon fill="none" stroke="black" points="1314.5,-108 1254.5,-108 1254.5,-72 1320.5,-72 1320.5,-102 1314.5,-108"/>
<polyline fill="none" stroke="black" points="1314.5,-108 1314.5,-102 "/>
<polyline fill="none" stroke="black" points="1320.5,-102 1314.5,-102 "/>
<text text-anchor="middle" x="1287.5" y="-86.3" font-family="Times,serif" font-size="14.00">var.azs</text>
</g>
<!-- [root] aws_subnet.private (expand)&#45;&gt;[root] var.azs -->
<g id="edge37" class="edge">
<title>[root] aws_subnet.private (expand)&#45;&gt;[root] var.azs</title>
<path fill="none" stroke="black" d="M1453.07,-287.74C1451.89,-268.89 1447.86,-238.38 1434.5,-216 1408.02,-171.64 1360.09,-135.36 1326.17,-113.53"/>
<polygon fill="black" stroke="black" points="1327.77,-110.4 1317.44,-108.03 1324.04,-116.32 1327.77,-110.4"/>
</g>
<!-- [root] var.subnets_cidr_private -->
<g id="node27" class="node">
<title>[root] var.subnets_cidr_private</title>
<polygon fill="none" stroke="black" points="1419,-252 1234,-252 1234,-216 1425,-216 1425,-246 1419,-252"/>
<polyline fill="none" stroke="black" points="1419,-252 1419,-246 "/>
<polyline fill="none" stroke="black" points="1425,-246 1419,-246 "/>
<text text-anchor="middle" x="1329.5" y="-230.3" font-family="Times,serif" font-size="14.00">var.subnets_cidr_private</text>
</g>
<!-- [root] aws_subnet.private (expand)&#45;&gt;[root] var.subnets_cidr_private -->
<g id="edge38" class="edge">
<title>[root] aws_subnet.private (expand)&#45;&gt;[root] var.subnets_cidr_private</title>
<path fill="none" stroke="black" d="M1423.17,-287.88C1406.8,-278.64 1386.42,-267.13 1368.85,-257.21"/>
<polygon fill="black" stroke="black" points="1370.38,-254.06 1359.95,-252.19 1366.94,-260.15 1370.38,-254.06"/>
</g>
<!-- [root] aws_subnet.public (expand)&#45;&gt;[root] aws_vpc.final_project (expand) -->
<g id="edge39" class="edge">
<title>[root] aws_subnet.public (expand)&#45;&gt;[root] aws_vpc.final_project (expand)</title>
<path fill="none" stroke="black" d="M848.27,-143.88C873.62,-134.18 905.51,-121.98 932.27,-111.74"/>
<polygon fill="black" stroke="black" points="933.79,-114.91 941.88,-108.07 931.29,-108.37 933.79,-114.91"/>
</g>
<!-- [root] aws_subnet.public (expand)&#45;&gt;[root] var.azs -->
<g id="edge40" class="edge">
<title>[root] aws_subnet.public (expand)&#45;&gt;[root] var.azs</title>
<path fill="none" stroke="black" d="M877.54,-150.29C980,-135.47 1161.75,-109.19 1244.42,-97.23"/>
<polygon fill="black" stroke="black" points="1245.07,-100.67 1254.47,-95.78 1244.07,-93.75 1245.07,-100.67"/>
</g>
<!-- [root] var.subnets_cidr_public -->
<g id="node28" class="node">
<title>[root] var.subnets_cidr_public</title>
<polygon fill="none" stroke="black" points="877.5,-108 699.5,-108 699.5,-72 883.5,-72 883.5,-102 877.5,-108"/>
<polyline fill="none" stroke="black" points="877.5,-108 877.5,-102 "/>
<polyline fill="none" stroke="black" points="883.5,-102 877.5,-102 "/>
<text text-anchor="middle" x="791.5" y="-86.3" font-family="Times,serif" font-size="14.00">var.subnets_cidr_public</text>
</g>
<!-- [root] aws_subnet.public (expand)&#45;&gt;[root] var.subnets_cidr_public -->
<g id="edge41" class="edge">
<title>[root] aws_subnet.public (expand)&#45;&gt;[root] var.subnets_cidr_public</title>
<path fill="none" stroke="black" d="M800.53,-143.7C799.21,-135.98 797.62,-126.71 796.15,-118.11"/>
<polygon fill="black" stroke="black" points="799.57,-117.37 794.43,-108.1 792.67,-118.55 799.57,-117.37"/>
</g>
<!-- [root] aws_vpc.final_project (expand)&#45;&gt;[root] provider[&quot;registry.terraform.io/hashicorp/aws&quot;] -->
<g id="edge42" class="edge">
<title>[root] aws_vpc.final_project (expand)&#45;&gt;[root] provider[&quot;registry.terraform.io/hashicorp/aws&quot;]</title>
<path fill="none" stroke="black" d="M907.17,-71.97C854.25,-60.6 785.19,-45.77 733.6,-34.7"/>
<polygon fill="black" stroke="black" points="734.04,-31.21 723.53,-32.53 732.57,-38.06 734.04,-31.21"/>
</g>
<!-- [root] var.vpc_cidr -->
<g id="node30" class="node">
<title>[root] var.vpc_cidr</title>
<polygon fill="none" stroke="black" points="1099.5,-36 1003.5,-36 1003.5,0 1105.5,0 1105.5,-30 1099.5,-36"/>
<polyline fill="none" stroke="black" points="1099.5,-36 1099.5,-30 "/>
<polyline fill="none" stroke="black" points="1105.5,-30 1099.5,-30 "/>
<text text-anchor="middle" x="1054.5" y="-14.3" font-family="Times,serif" font-size="14.00">var.vpc_cidr</text>
</g>
<!-- [root] aws_vpc.final_project (expand)&#45;&gt;[root] var.vpc_cidr -->
<g id="edge43" class="edge">
<title>[root] aws_vpc.final_project (expand)&#45;&gt;[root] var.vpc_cidr</title>
<path fill="none" stroke="black" d="M1003.31,-71.7C1011.63,-63.14 1021.81,-52.66 1030.89,-43.3"/>
<polygon fill="black" stroke="black" points="1033.43,-45.72 1037.88,-36.1 1028.41,-40.84 1033.43,-45.72"/>
</g>
<!-- [root] var.aws_region -->
<g id="node22" class="node">
<title>[root] var.aws_region</title>
<polygon fill="none" stroke="black" points="2137,-396 2020,-396 2020,-360 2143,-360 2143,-390 2137,-396"/>
<polyline fill="none" stroke="black" points="2137,-396 2137,-390 "/>
<polyline fill="none" stroke="black" points="2143,-390 2137,-390 "/>
<text text-anchor="middle" x="2081.5" y="-374.3" font-family="Times,serif" font-size="14.00">var.aws_region</text>
</g>
<!-- [root] var.pem&#45;key -->
<g id="node26" class="node">
<title>[root] var.pem&#45;key</title>
<polygon fill="none" stroke="black" points="2258,-396 2161,-396 2161,-360 2264,-360 2264,-390 2258,-396"/>
<polyline fill="none" stroke="black" points="2258,-396 2258,-390 "/>
<polyline fill="none" stroke="black" points="2264,-390 2258,-390 "/>
<text text-anchor="middle" x="2212.5" y="-374.3" font-family="Times,serif" font-size="14.00">var.pem&#45;key</text>
</g>
<!-- [root] meta.count&#45;boundary (EachMode fixup) -->
<g id="node31" class="node">
<title>[root] meta.count&#45;boundary (EachMode fixup)</title>
<ellipse fill="none" stroke="black" cx="1428.5" cy="-450" rx="223.66" ry="18"/>
<text text-anchor="middle" x="1428.5" y="-446.3" font-family="Times,serif" font-size="14.00">[root] meta.count&#45;boundary (EachMode fixup)</text>
</g>
<!-- [root] meta.count&#45;boundary (EachMode fixup)&#45;&gt;[root] aws_db_instance.production (expand) -->
<g id="edge44" class="edge">
<title>[root] meta.count&#45;boundary (EachMode fixup)&#45;&gt;[root] aws_db_instance.production (expand)</title>
<path fill="none" stroke="black" d="M1528.61,-433.9C1600.38,-423.07 1697.37,-408.44 1773.17,-397"/>
<polygon fill="black" stroke="black" points="1773.88,-400.43 1783.25,-395.48 1772.84,-393.51 1773.88,-400.43"/>
</g>
<!-- [root] meta.count&#45;boundary (EachMode fixup)&#45;&gt;[root] aws_instance.artifact&#45;repo (expand) -->
<g id="edge45" class="edge">
<title>[root] meta.count&#45;boundary (EachMode fixup)&#45;&gt;[root] aws_instance.artifact&#45;repo (expand)</title>
<path fill="none" stroke="black" d="M1440.61,-431.7C1446.37,-423.47 1453.36,-413.48 1459.71,-404.42"/>
<polygon fill="black" stroke="black" points="1462.66,-406.3 1465.53,-396.1 1456.92,-402.29 1462.66,-406.3"/>
</g>
<!-- [root] meta.count&#45;boundary (EachMode fixup)&#45;&gt;[root] aws_instance.bastion&#45;host (expand) -->
<g id="edge46" class="edge">
<title>[root] meta.count&#45;boundary (EachMode fixup)&#45;&gt;[root] aws_instance.bastion&#45;host (expand)</title>
<path fill="none" stroke="black" d="M1295.31,-435.54C1203.25,-425.87 1077.71,-412 958.14,-396.19"/>
<polygon fill="black" stroke="black" points="958.44,-392.7 948.07,-394.85 957.52,-399.64 958.44,-392.7"/>
</g>
<!-- [root] meta.count&#45;boundary (EachMode fixup)&#45;&gt;[root] aws_instance.jenkins (expand) -->
<g id="edge47" class="edge">
<title>[root] meta.count&#45;boundary (EachMode fixup)&#45;&gt;[root] aws_instance.jenkins (expand)</title>
<path fill="none" stroke="black" d="M1487.82,-432.59C1524.28,-422.5 1571.25,-409.5 1609.79,-398.84"/>
<polygon fill="black" stroke="black" points="1611.21,-402.08 1619.91,-396.04 1609.34,-395.33 1611.21,-402.08"/>
</g>
<!-- [root] meta.count&#45;boundary (EachMode fixup)&#45;&gt;[root] aws_instance.test (expand) -->
<g id="edge48" class="edge">
<title>[root] meta.count&#45;boundary (EachMode fixup)&#45;&gt;[root] aws_instance.test (expand)</title>
<path fill="none" stroke="black" d="M1393.88,-432.05C1374.53,-422.58 1350.21,-410.68 1329.52,-400.55"/>
<polygon fill="black" stroke="black" points="1330.81,-397.28 1320.29,-396.03 1327.74,-403.57 1330.81,-397.28"/>
</g>
<!-- [root] meta.count&#45;boundary (EachMode fixup)&#45;&gt;[root] aws_route_table_association.a (expand) -->
<g id="edge49" class="edge">
<title>[root] meta.count&#45;boundary (EachMode fixup)&#45;&gt;[root] aws_route_table_association.a (expand)</title>
<path fill="none" stroke="black" d="M1272.54,-437.09C1247.13,-435.29 1221.09,-433.52 1196.5,-432 884.09,-412.65 802.29,-425.07 486.6,-396.05"/>
<polygon fill="black" stroke="black" points="486.52,-392.53 476.23,-395.09 485.87,-399.5 486.52,-392.53"/>
</g>
<!-- [root] meta.count&#45;boundary (EachMode fixup)&#45;&gt;[root] aws_route_table_association.b (expand) -->
<g id="edge50" class="edge">
<title>[root] meta.count&#45;boundary (EachMode fixup)&#45;&gt;[root] aws_route_table_association.b (expand)</title>
<path fill="none" stroke="black" d="M1269.47,-437.33C1090.15,-424.11 814.38,-403.51 736.59,-396.03"/>
<polygon fill="black" stroke="black" points="736.88,-392.54 726.58,-395.02 736.18,-399.51 736.88,-392.54"/>
</g>
<!-- [root] meta.count&#45;boundary (EachMode fixup)&#45;&gt;[root] aws_route_table_association.c (expand) -->
<g id="edge51" class="edge">
<title>[root] meta.count&#45;boundary (EachMode fixup)&#45;&gt;[root] aws_route_table_association.c (expand)</title>
<path fill="none" stroke="black" d="M1349.53,-433.12C1297.81,-422.71 1229.91,-409.05 1175.28,-398.06"/>
<polygon fill="black" stroke="black" points="1175.73,-394.58 1165.23,-396.04 1174.35,-401.45 1175.73,-394.58"/>
</g>
<!-- [root] meta.count&#45;boundary (EachMode fixup)&#45;&gt;[root] aws_security_group.public&#45;sg (expand) -->
<g id="edge52" class="edge">
<title>[root] meta.count&#45;boundary (EachMode fixup)&#45;&gt;[root] aws_security_group.public&#45;sg (expand)</title>
<path fill="none" stroke="black" d="M1274.43,-436.94C1248.43,-435.12 1221.7,-433.39 1196.5,-432 773.08,-408.56 662.97,-433.15 237.22,-396.1"/>
<polygon fill="black" stroke="black" points="237.37,-392.6 227.1,-395.21 236.76,-399.57 237.37,-392.6"/>
</g>
<!-- [root] meta.count&#45;boundary (EachMode fixup)&#45;&gt;[root] var.aws_region -->
<g id="edge53" class="edge">
<title>[root] meta.count&#45;boundary (EachMode fixup)&#45;&gt;[root] var.aws_region</title>
<path fill="none" stroke="black" d="M1608.62,-439.32C1721.32,-431.65 1869.58,-418.62 2009.59,-396.01"/>
<polygon fill="black" stroke="black" points="2010.35,-399.43 2019.65,-394.36 2009.22,-392.52 2010.35,-399.43"/>
</g>
<!-- [root] meta.count&#45;boundary (EachMode fixup)&#45;&gt;[root] var.pem&#45;key -->
<g id="edge54" class="edge">
<title>[root] meta.count&#45;boundary (EachMode fixup)&#45;&gt;[root] var.pem&#45;key</title>
<path fill="none" stroke="black" d="M1642.56,-444.72C1784.74,-439.14 1975.39,-426.45 2151,-396.07"/>
<polygon fill="black" stroke="black" points="2151.7,-399.5 2160.94,-394.33 2150.49,-392.6 2151.7,-399.5"/>
</g>
<!-- [root] provider[&quot;registry.terraform.io/hashicorp/aws&quot;] (close) -->
<g id="node32" class="node">
<title>[root] provider[&quot;registry.terraform.io/hashicorp/aws&quot;] (close)</title>
<ellipse fill="none" stroke="black" cx="895.5" cy="-450" rx="291.65" ry="18"/>
<text text-anchor="middle" x="895.5" y="-446.3" font-family="Times,serif" font-size="14.00">[root] provider[&quot;registry.terraform.io/hashicorp/aws&quot;] (close)</text>
</g>
<!-- [root] provider[&quot;registry.terraform.io/hashicorp/aws&quot;] (close)&#45;&gt;[root] aws_db_instance.production (expand) -->
<g id="edge55" class="edge">
<title>[root] provider[&quot;registry.terraform.io/hashicorp/aws&quot;] (close)&#45;&gt;[root] aws_db_instance.production (expand)</title>
<path fill="none" stroke="black" d="M1099.71,-437.11C1334.81,-423.37 1697.48,-401.97 1772.87,-395.97"/>
<polygon fill="black" stroke="black" points="1773.59,-399.42 1783.25,-395.06 1772.98,-392.45 1773.59,-399.42"/>
</g>
<!-- [root] provider[&quot;registry.terraform.io/hashicorp/aws&quot;] (close)&#45;&gt;[root] aws_instance.artifact&#45;repo (expand) -->
<g id="edge56" class="edge">
<title>[root] provider[&quot;registry.terraform.io/hashicorp/aws&quot;] (close)&#45;&gt;[root] aws_instance.artifact&#45;repo (expand)</title>
<path fill="none" stroke="black" d="M1039.46,-434.31C1130.16,-424.69 1249.98,-411.32 1364.7,-396.22"/>
<polygon fill="black" stroke="black" points="1365.26,-399.67 1374.71,-394.89 1364.34,-392.73 1365.26,-399.67"/>
</g>
<!-- [root] provider[&quot;registry.terraform.io/hashicorp/aws&quot;] (close)&#45;&gt;[root] aws_instance.bastion&#45;host (expand) -->
<g id="edge57" class="edge">
<title>[root] provider[&quot;registry.terraform.io/hashicorp/aws&quot;] (close)&#45;&gt;[root] aws_instance.bastion&#45;host (expand)</title>
<path fill="none" stroke="black" d="M883.39,-431.7C877.63,-423.47 870.64,-413.48 864.29,-404.42"/>
<polygon fill="black" stroke="black" points="867.08,-402.29 858.47,-396.1 861.34,-406.3 867.08,-402.29"/>
</g>
<!-- [root] provider[&quot;registry.terraform.io/hashicorp/aws&quot;] (close)&#45;&gt;[root] aws_instance.jenkins (expand) -->
<g id="edge58" class="edge">
<title>[root] provider[&quot;registry.terraform.io/hashicorp/aws&quot;] (close)&#45;&gt;[root] aws_instance.jenkins (expand)</title>
<path fill="none" stroke="black" d="M1089.32,-436.52C1254.78,-425.45 1481.19,-409.22 1587.6,-396.15"/>
<polygon fill="black" stroke="black" points="1588.34,-399.58 1597.82,-394.85 1587.46,-392.64 1588.34,-399.58"/>
</g>
<!-- [root] provider[&quot;registry.terraform.io/hashicorp/aws&quot;] (close)&#45;&gt;[root] aws_instance.test (expand) -->
<g id="edge59" class="edge">
<title>[root] provider[&quot;registry.terraform.io/hashicorp/aws&quot;] (close)&#45;&gt;[root] aws_instance.test (expand)</title>
<path fill="none" stroke="black" d="M994.12,-433.04C1052.27,-423.4 1127.53,-410.54 1203.71,-396.11"/>
<polygon fill="black" stroke="black" points="1204.81,-399.47 1213.98,-394.16 1203.5,-392.59 1204.81,-399.47"/>
</g>
<!-- [root] provider[&quot;registry.terraform.io/hashicorp/aws&quot;] (close)&#45;&gt;[root] aws_route_table_association.a (expand) -->
<g id="edge60" class="edge">
<title>[root] provider[&quot;registry.terraform.io/hashicorp/aws&quot;] (close)&#45;&gt;[root] aws_route_table_association.a (expand)</title>
<path fill="none" stroke="black" d="M774.38,-433.56C695.29,-423.42 589.47,-409.77 486.25,-396.1"/>
<polygon fill="black" stroke="black" points="486.64,-392.62 476.27,-394.77 485.72,-399.56 486.64,-392.62"/>
</g>
<!-- [root] provider[&quot;registry.terraform.io/hashicorp/aws&quot;] (close)&#45;&gt;[root] aws_route_table_association.b (expand) -->
<g id="edge61" class="edge">
<title>[root] provider[&quot;registry.terraform.io/hashicorp/aws&quot;] (close)&#45;&gt;[root] aws_route_table_association.b (expand)</title>
<path fill="none" stroke="black" d="M827.96,-432.41C786.57,-422.25 733.4,-409.19 689.99,-398.52"/>
<polygon fill="black" stroke="black" points="690.58,-395.06 680.03,-396.08 688.91,-401.86 690.58,-395.06"/>
</g>
<!-- [root] provider[&quot;registry.terraform.io/hashicorp/aws&quot;] (close)&#45;&gt;[root] aws_route_table_association.c (expand) -->
<g id="edge62" class="edge">
<title>[root] provider[&quot;registry.terraform.io/hashicorp/aws&quot;] (close)&#45;&gt;[root] aws_route_table_association.c (expand)</title>
<path fill="none" stroke="black" d="M940.28,-432.05C966.11,-422.28 998.77,-409.92 1026.07,-399.59"/>
<polygon fill="black" stroke="black" points="1027.37,-402.84 1035.49,-396.03 1024.9,-396.3 1027.37,-402.84"/>
</g>
<!-- [root] provider[&quot;registry.terraform.io/hashicorp/aws&quot;] (close)&#45;&gt;[root] aws_security_group.public&#45;sg (expand) -->
<g id="edge63" class="edge">
<title>[root] provider[&quot;registry.terraform.io/hashicorp/aws&quot;] (close)&#45;&gt;[root] aws_security_group.public&#45;sg (expand)</title>
<path fill="none" stroke="black" d="M702.45,-436.48C573.41,-427.39 399.63,-413.78 237.3,-396.17"/>
<polygon fill="black" stroke="black" points="237.44,-392.66 227.12,-395.05 236.68,-399.62 237.44,-392.66"/>
</g>
<!-- [root] root -->
<g id="node33" class="node">
<title>[root] root</title>
<ellipse fill="none" stroke="black" cx="1161.5" cy="-522" rx="58.49" ry="18"/>
<text text-anchor="middle" x="1161.5" y="-518.3" font-family="Times,serif" font-size="14.00">[root] root</text>
</g>
<!-- [root] root&#45;&gt;[root] meta.count&#45;boundary (EachMode fixup) -->
<g id="edge64" class="edge">
<title>[root] root&#45;&gt;[root] meta.count&#45;boundary (EachMode fixup)</title>
<path fill="none" stroke="black" d="M1204.4,-509.75C1245.36,-499.01 1307.86,-482.63 1356.46,-469.89"/>
<polygon fill="black" stroke="black" points="1357.51,-473.23 1366.3,-467.31 1355.74,-466.46 1357.51,-473.23"/>
</g>
<!-- [root] root&#45;&gt;[root] provider[&quot;registry.terraform.io/hashicorp/aws&quot;] (close) -->
<g id="edge65" class="edge">
<title>[root] root&#45;&gt;[root] provider[&quot;registry.terraform.io/hashicorp/aws&quot;] (close)</title>
<path fill="none" stroke="black" d="M1118.47,-509.68C1077.96,-499.01 1016.48,-482.84 968.33,-470.17"/>
<polygon fill="black" stroke="black" points="969.14,-466.76 958.58,-467.6 967.36,-473.53 969.14,-466.76"/>
</g>
</g>
</svg>
